<svg xmlns="http://www.w3.org/2000/svg" viewBox="0 0 1200 630" width="1200" height="630">
  <defs>
    <linearGradient id="g" x1="0" y1="0" x2="1" y2="1">
      <stop offset="0%" stop-color="#3B82F6"/>
      <stop offset="100%" stop-color="#F59E0B"/>
    </linearGradient>
    <radialGradient id="glow" cx="0.2" cy="0.2" r="0.8">
      <stop offset="0%" stop-color="#3B82F6" stop-opacity="0.45"/>
      <stop offset="100%" stop-color="#3B82F6" stop-opacity="0"/>
    </radialGradient>
  </defs>
  <rect width="1200" height="630" fill="#0A0F1E"/>
  <rect width="1200" height="630" fill="url(#glow)"/>
  <circle cx="1080" cy="540" r="220" fill="#F59E0B" opacity="0.18"/>
  <g transform="translate(80 200)">
    <rect x="0" y="0" width="120" height="120" rx="26" fill="url(#g)"/>
    <g transform="translate(20 28)" fill="none" stroke="#ffffff" stroke-width="7" stroke-linecap="round" stroke-linejoin="round">
      <path d="M0 36 40 4 80 36"/>
      <path d="M10 30v44h60V30"/>
      <path d="M30 74V52h20v22"/>
    </g>
  </g>
  <text x="80" y="380" font-family="'Plus Jakarta Sans', system-ui, sans-serif" font-size="78" font-weight="800" fill="#F9FAFB" letter-spacing="-2">Website Sekolah Keren</text>
  <text x="80" y="438" font-family="'Inter', system-ui, sans-serif" font-size="34" font-weight="500" fill="#C7CCD6">Website Sekolah Modern, Bukan Sekadar Tampilan</text>
  <g transform="translate(80 500)" font-family="'Inter', system-ui, sans-serif" font-size="22" font-weight="600">
    <rect x="0" y="0" width="200" height="46" rx="23" fill="#3B82F6"/>
    <text x="100" y="30" text-anchor="middle" fill="#ffffff">Mulai Rp 1,1 Juta</text>
    <rect x="220" y="0" width="220" height="46" rx="23" fill="none" stroke="#ffffff" stroke-opacity="0.3"/>
    <text x="330" y="30" text-anchor="middle" fill="#F9FAFB">CMS Modern · SEO Ready</text>
  </g>
</svg>
